<?xml version="1.0" encoding="UTF-8"?>
<svg width="700pt" height="700pt" version="1.1" viewBox="0 0 700 700" xmlns="http://www.w3.org/2000/svg">
 <path d="m516.45 472.82c-4.6406 0-8.3984-3.7656-8.3984-8.3984v-1.1133c0-11.285-0.44141-22.359-1.3086-32.906-0.38672-4.6289 3.0586-8.6797 7.6797-9.0586 4.6055-0.44922 8.6797 3.0586 9.0586 7.6797 0.91016 11.004 1.3711 22.539 1.3711 34.285v1.1133c0 4.6328-3.7695 8.3984-8.4023 8.3984zm-6-69.34c-3.9531 0-7.4766-2.8008-8.2383-6.832-2.1758-11.445-4.9961-22.469-8.3945-32.789-1.4492-4.4023 0.95312-9.1562 5.3633-10.605 4.3945-1.4414 9.1562 0.95312 10.605 5.3633 3.6172 10.996 6.6211 22.742 8.9336 34.895 0.86719 4.5586-2.1211 8.9531-6.6836 9.8203-0.53516 0.097657-1.0586 0.14844-1.5859 0.14844zm-22.027-66.094c-3.0508 0-5.9922-1.6641-7.4844-4.5703-5.1641-10.074-11.152-19.586-17.785-28.281-2.8125-3.6875-2.1055-8.9609 1.5742-11.773 3.6875-2.8125 8.9609-2.1055 11.773 1.5742 7.2461 9.4844 13.762 19.852 19.391 30.812 2.1133 4.1211 0.48438 9.1914-3.6406 11.305-1.2227 0.64062-2.5391 0.93359-3.8281 0.93359zm-42.285-55.176c-1.9961 0-3.9961-0.70703-5.6016-2.1484-8.1602-7.3086-17.184-14.02-26.816-19.938-3.9492-2.4297-5.1875-7.6016-2.7578-11.559 2.4375-3.9531 7.6016-5.1797 11.559-2.7578 10.484 6.4414 20.312 13.754 29.227 21.742 3.457 3.0938 3.7461 8.4062 0.65234 11.859-1.6641 1.8555-3.9609 2.8008-6.2617 2.8008zm-368.88-32.109c-3.5508 0-6.8477-2.2617-7.9922-5.8242-1.4297-4.4102 0.99219-9.1484 5.4023-10.578 0.53125-0.16797 13.285-4.2695 34.48-9.3164 4.5234-1.0508 9.043 1.7148 10.113 6.2305 1.0703 4.5156-1.7148 9.043-6.2305 10.113-20.488 4.8789-33.082 8.918-33.207 8.9609-0.84766 0.28125-1.7148 0.41406-2.5664 0.41406zm309.71-4.543c-1.0703 0-2.1641-0.20312-3.2148-0.64453-10.051-4.1641-20.852-7.7891-32.094-10.785-4.4883-1.1914-7.1523-5.7969-5.9648-10.277 1.1914-4.4883 5.8086-7.1484 10.277-5.9648 11.969 3.1836 23.477 7.0508 34.215 11.5 4.2852 1.7695 6.3203 6.6914 4.543 10.977-1.3438 3.2422-4.4727 5.1953-7.7617 5.1953zm-241.61-11.848c-3.9688 0-7.4961-2.8203-8.2461-6.8672-0.84766-4.5625 2.1641-8.9453 6.7188-9.793 11.711-2.1758 23.484-4.0586 35-5.6016 4.6289-0.63672 8.8281 2.6172 9.4414 7.2109 0.61719 4.5977-2.6172 8.8281-7.2109 9.4414-11.234 1.4961-22.73 3.3398-34.16 5.4609-0.51172 0.097656-1.0312 0.14844-1.543 0.14844zm174.19-6.3711c-0.42188 0-0.84766-0.027344-1.2734-0.097656-10.871-1.6602-22.328-2.8633-34.062-3.5781-4.6328-0.28516-8.1562-4.2695-7.875-8.8984 0.28516-4.6328 4.1875-8.1211 8.8984-7.875 12.234 0.75 24.199 2.0078 35.566 3.7383 4.5859 0.69922 7.7344 4.9844 7.043 9.5703-0.63672 4.1562-4.2148 7.1406-8.2969 7.1406zm-104.79-2.8438c-4.3477 0-8.0234-3.3516-8.3633-7.7578-0.35547-4.6289 3.1016-8.6641 7.7266-9.0234 12.062-0.92969 24.012-1.4844 35.512-1.6328h0.11328c4.5859 0 8.3359 3.6875 8.3945 8.2969 0.0625 4.6406-3.6484 8.4492-8.2891 8.5039-11.137 0.14844-22.73 0.6875-34.434 1.5898-0.21875 0.011719-0.44141 0.023438-0.66016 0.023438z"/>
 <path d="m513.36 487.32c-5.7812 0-11.25-2.9453-15.008-8.0859l-46.129-63.035c-2.7422-3.7461-1.9258-9.0039 1.8203-11.738 3.7383-2.7383 9.0039-1.918 11.738 1.8203l46.129 63.035c1.4492 1.9727 1.457 1.9727 2.9062-0.007812l45.641-62.98c2.7305-3.7578 7.9727-4.5938 11.73-1.875 3.7578 2.7227 4.5938 7.9727 1.875 11.73l-45.641 62.98c-3.7539 5.1719-9.2188 8.1484-15.016 8.1602-0.019531-0.003907-0.035156-0.003907-0.046875-0.003907z"/>
</svg>
