<?xml version="1.0" encoding="UTF-8"?>
<svg width="700pt" height="700pt" version="1.1" viewBox="0 0 700 700" xmlns="http://www.w3.org/2000/svg">
 <path d="m638.61 335.72c-25.621-16.66-58.66-23.52-94.078-21.07 4.6914-36.961-0.91016-71.961-17.359-99.262-2.4492-4.0586-6.7891-6.6484-11.48-6.7891-31.711-1.1211-64.82 10.852-94.781 32.762-14.77-33.109-36.891-59.5-64.262-74.34-4.1289-2.2383-9.1719-2.2383-13.301 0-27.371 14.84-49.488 41.23-64.191 74.34-30.031-21.91-63.141-33.949-94.852-32.762-4.6914 0.14062-9.0312 2.7305-11.48 6.7891-16.449 27.301-22.051 62.301-17.359 99.262-35.422-2.4492-68.461 4.4102-94.078 21.07-3.9883 2.5898-6.3711 7-6.3711 11.762-0.070313 58.238 43.891 119.84 112 156.8 37.031 20.16 76.301 30.309 112.21 30.309 26.039 0 50.262-5.3203 70.77-16.102 20.512 10.781 44.73 16.102 70.77 16.102 35.91 0 75.18-10.148 112.21-30.309 68.109-36.961 112.07-98.559 112-156.8 0.003907-4.7617-2.375-9.1719-6.3672-11.762zm-458.22 143.99c-55.09-29.961-93.102-79.102-97.02-124.46 21.211-11.27 48.512-15.121 77.699-11.828 5.6719 21.488 14.699 43.191 27.02 64.051 27.93 47.602 67.969 82.391 109.76 97.789-35.773 4.4766-78.332-4.2031-117.46-25.551zm149.03 5.1797c-42.559-6.8594-87.852-41.578-117.25-91.488-31.781-54.109-39.059-115.78-19.109-156.66 45.5 2.3789 95.898 38.641 127.68 92.68 5.5312 9.3086 10.219 18.828 14.211 28.488-16.453 44.73-18.555 90.23-5.5312 126.98zm-27.723-224.7c11.059-28.07 27.789-50.961 48.301-64.539 20.512 13.578 37.238 36.539 48.301 64.539-16.172 15.469-30.871 34.02-43.191 55.02-1.8203 3.0117-3.4297 6.0898-5.1094 9.1719-1.6797-3.0781-3.2891-6.1602-5.1094-9.1719-12.32-21-27.02-39.48-43.191-55.02zm77.492 69.23c31.852-54.039 82.25-90.301 127.75-92.68 19.949 40.879 12.672 102.55-19.109 156.66-31.852 54.039-82.25 90.301-127.68 92.68-20.023-40.953-12.742-102.62 19.039-156.66zm140.42 150.29c-39.129 21.211-81.691 29.961-117.46 25.551 41.789-15.398 81.828-50.191 109.76-97.789 12.32-20.859 21.352-42.559 27.02-64.051 29.191-3.2891 56.488 0.55859 77.699 11.828-3.918 45.359-41.93 94.57-97.02 124.46z"/>
</svg>
