<?xml version="1.0" encoding="UTF-8"?>
<svg width="1200pt" height="1200pt" version="1.1" viewBox="0 0 1200 1200" xmlns="http://www.w3.org/2000/svg">
 <g>
  <path d="m817.08 1079.4c-27.984 0-56.879-19.512-89.258-41.375-41.785-28.223-89.137-60.215-149.06-63.48-16.176-0.88672-32.902-1.8008-52.801 5.4961-18.48 6.793-29.281 16.945-40.801 27.672-12.215 11.473-24.863 23.352-46.344 31.488-9.8633 3.7188-44.305 15.07-73.633 4.8008-38.039-13.367-43.945-53.449-50.809-99.84-6.1914-41.977-13.895-94.199-47.016-143.02-24-35.16-49.273-52.199-73.824-68.688-30.098-20.184-58.535-39.289-72.984-87.07-4.8008-16.055-18.672-72.625 7.1992-127.2 21.055-43.758 53.812-58.902 85.613-73.543 26.594-12.238 51.695-23.785 73.105-51.625 32.953-42.84 29.543-92.594 26.543-136.49-2.6641-38.809-4.9453-72.312 22.176-87.77 25.199-14.398 50.879 4.9922 83.375 29.473 38.398 28.801 86.113 64.801 153.17 65.52 37.824 0.40625 68.664-10.559 80.305-14.664 44.902-15.863 69.602-39.145 91.199-59.664 22.223-21 43.199-40.801 79.465-47.734 55.559-10.559 131.81 13.512 150.7 61.512 12 30.289-3.8164 56.543-20.473 84.359-17.258 28.801-36.816 61.512-34.152 108v0.69531c2.9531 52.559 22.488 83.426 38.398 100.05 22.68 23.762 49.223 31.512 74.879 39.023 28.414 8.3281 55.199 16.176 69.887 44.762 20.953 40.992-3.0703 89.785-4.1055 91.848-19.727 39.266-56.855 52.465-96.168 66.434-38.785 13.754-82.727 29.352-120.38 73.055-14.688 17.039-21.359 24.793-25.727 37.992-9.793 29.543 1.0078 56.879 12.457 85.801 12 30.504 24.551 62.039 10.586 95.688-9.1211 21.938-22.273 36.672-39.098 43.824l0.003906 0.003907c-7.0781 3.0547-14.707 4.6367-22.418 4.6562zm-254.4-129.43c6.2148 0 12 0.3125 17.426 0.60156 66.574 3.6484 119.04 39.07 161.21 67.559 36.719 24.816 65.734 44.398 88.801 34.609 16.32-6.9102 23.832-24.984 26.398-30.938 10.223-24.648 0.50391-49.199-10.754-77.641-12-30.168-25.465-64.344-12.938-102.17 5.8789-17.734 14.566-27.793 30.312-46.078 41.855-48.551 88.969-65.305 130.56-80.062 37.633-13.367 67.367-24 82.754-54.574 0.19141-0.38281 19.68-39.863 4.1992-70.152-9.9102-19.367-29.93-25.223-55.199-32.641-27.359-8.0156-58.367-17.09-85.488-45.602-18.648-19.559-41.617-55.414-44.953-115.2v-0.64844c-3.0469-53.953 19.441-91.586 37.535-121.8 16.801-28.055 25.945-44.832 18.719-63.215-12.984-33-74.398-56.16-123.86-46.727-29.375 5.5938-46.176 21.602-67.465 41.594-23.449 22.152-50.016 47.281-99.719 64.801-12.719 4.4883-46.535 16.488-88.512 16.031-74.977-0.69531-128.4-40.945-167.4-70.344-25.465-19.199-45.602-34.32-57.047-27.793-13.344 7.6094-12.551 29.762-10.105 65.281 3.1211 45.77 7.0078 102.72-31.488 152.76-25.008 32.52-55.199 46.465-82.078 58.777-30.457 14.039-56.762 26.137-73.895 62.09-22.488 46.766-10.488 95.941-6.168 109.86 12 39.602 34.68 54.84 63.406 74.113 25.199 16.922 53.785 36 80.281 75.145 36.215 53.352 44.375 108.57 50.93 152.98 6.793 46.055 11.762 72.527 35.016 80.711 22.223 7.8242 51.527-2.3984 57.168-4.5859 17.039-6.4336 27.434-16.199 38.398-26.52 12.121-11.352 25.848-24.238 48.91-32.688h0.003906c14.422-5.2109 29.668-7.7617 45-7.5352z"/>
  <path d="m631.87 547.66c52.273 32.832 56.137 80.039 58.801 112.68 1.7031 20.953 1.4414 70.367-39.91 120.41-21.434 25.922-60.359 73.031-119.71 75.625-77.688 3.3828-135.65-72-155.4-109.59-7.6797-14.664-34.895-72-2.1133-135.84 12.266-23.879 34.246-66.719 94.512-84.887 56.973-17.254 122.35-4.4883 163.82 21.602z"/>
  <path d="m477.05 393.27c0 8.8789-7.1992 16.078-16.078 16.078-8.8828 0-16.082-7.1992-16.082-16.078 0-8.8828 7.1992-16.082 16.082-16.082 8.8789 0 16.078 7.1992 16.078 16.082"/>
  <path d="m300.57 558.46c0 8.8789-7.1992 16.078-16.078 16.078s-16.082-7.1992-16.082-16.078c0-8.8828 7.2031-16.082 16.082-16.082s16.078 7.1992 16.078 16.082"/>
  <path d="m749.4 879.5c0 8.8789-7.1992 16.082-16.078 16.082-8.8828 0-16.082-7.2031-16.082-16.082s7.1992-16.078 16.082-16.078c8.8789 0 16.078 7.1992 16.078 16.078"/>
  <path d="m779.21 610.82c0 8.8789-7.1992 16.078-16.078 16.078-8.8828 0-16.082-7.1992-16.082-16.078 0-8.8828 7.1992-16.082 16.082-16.082 8.8789 0 16.078 7.1992 16.078 16.082"/>
  <path d="m686.71 422.43c0 8.8789-7.1992 16.078-16.078 16.078-8.8828 0-16.082-7.1992-16.082-16.078 0-8.8828 7.1992-16.082 16.082-16.082 8.8789 0 16.078 7.1992 16.078 16.082"/>
  <path d="m929.5 668.14c0 8.8789-7.1992 16.078-16.082 16.078-8.8789 0-16.078-7.1992-16.078-16.078 0-8.8828 7.1992-16.082 16.078-16.082 8.8828 0 16.082 7.1992 16.082 16.082"/>
  <path d="m838.82 325.89c0 8.8828-7.1992 16.082-16.082 16.082-8.8789 0-16.078-7.1992-16.078-16.082 0-8.8789 7.1992-16.078 16.078-16.078 8.8828 0 16.082 7.1992 16.082 16.078"/>
 </g>
</svg>
