<svg height='100px' width='100px'  fill="#000000" xmlns="http://www.w3.org/2000/svg" xmlns:xlink="http://www.w3.org/1999/xlink" version="1.1" x="0px" y="0px" viewBox="0 0 24 24" enable-background="new 0 0 24 24" xml:space="preserve"><g><path d="M7.845,14.129c0.075,0.105,0.196,0.167,0.325,0.167h2.362l-1.665,6.079c-0.05,0.182,0.034,0.374,0.201,0.46   c0.059,0.03,0.122,0.045,0.185,0.045c0.116,0,0.23-0.051,0.309-0.146l8.027-9.741c0.103-0.124,0.12-0.297,0.046-0.439   c-0.074-0.143-0.228-0.221-0.386-0.214l-3.759,0.297l4.128-6.54c0.088-0.138,0.082-0.315-0.014-0.447   c-0.096-0.133-0.26-0.192-0.42-0.154L10.961,5.03c-0.133,0.032-0.239,0.13-0.283,0.259l-2.887,8.479   C7.75,13.889,7.77,14.024,7.845,14.129z M11.366,5.754l5.047-1.243l-4.024,6.376c-0.081,0.128-0.083,0.291-0.005,0.42   c0.079,0.129,0.227,0.2,0.374,0.192l3.615-0.286l-6.24,7.571l1.311-4.782c0.033-0.12,0.008-0.249-0.067-0.348   c-0.076-0.099-0.193-0.157-0.318-0.157H8.729L11.366,5.754z"></path><path d="M5.293,18.039L3.592,19.74c-0.156,0.156-0.156,0.409,0,0.565c0.078,0.078,0.181,0.117,0.283,0.117s0.205-0.039,0.283-0.117   l1.701-1.701c0.156-0.156,0.156-0.409,0-0.565S5.45,17.883,5.293,18.039z"></path><path d="M20.683,12.009c0,0.221,0.18,0.4,0.4,0.4h2.406c0.221,0,0.4-0.179,0.4-0.4s-0.18-0.4-0.4-0.4h-2.406   C20.863,11.609,20.683,11.788,20.683,12.009z"></path><path d="M0.51,12.408h2.406c0.221,0,0.4-0.179,0.4-0.4s-0.18-0.4-0.4-0.4H0.51c-0.221,0-0.4,0.179-0.4,0.4S0.29,12.408,0.51,12.408   z"></path><path d="M19.841,20.416c0.078,0.078,0.181,0.117,0.283,0.117s0.205-0.039,0.283-0.117c0.156-0.156,0.156-0.409,0-0.565   l-1.701-1.701c-0.156-0.156-0.41-0.156-0.566,0s-0.156,0.409,0,0.565L19.841,20.416z"></path><path d="M4.159,3.602c-0.156-0.156-0.41-0.156-0.566,0s-0.156,0.409,0,0.565l1.701,1.701c0.078,0.078,0.181,0.117,0.283,0.117   S5.782,5.947,5.86,5.868c0.156-0.156,0.156-0.409,0-0.565L4.159,3.602z"></path><path d="M20.446,8.956c0.049,0,0.099-0.009,0.147-0.028l2.237-0.885c0.205-0.082,0.306-0.314,0.225-0.519s-0.312-0.304-0.52-0.225   l-2.237,0.885c-0.205,0.082-0.306,0.314-0.225,0.519C20.136,8.86,20.287,8.956,20.446,8.956z"></path><path d="M3.406,14.869l-2.237,0.885c-0.205,0.082-0.306,0.314-0.225,0.519c0.063,0.157,0.213,0.253,0.372,0.253   c0.049,0,0.099-0.009,0.147-0.028l2.237-0.885c0.205-0.082,0.306-0.314,0.225-0.519S3.616,14.789,3.406,14.869z"></path><path d="M20.133,15.976l2.207,0.956c0.052,0.022,0.105,0.033,0.159,0.033c0.154,0,0.302-0.09,0.367-0.241   c0.088-0.203-0.006-0.438-0.208-0.526l-2.207-0.956c-0.201-0.086-0.438,0.005-0.526,0.208S19.931,15.888,20.133,15.976z"></path><path d="M1.253,7.802L3.46,8.758C3.512,8.781,3.566,8.791,3.62,8.791c0.154,0,0.302-0.09,0.367-0.241   c0.088-0.203-0.006-0.438-0.208-0.526L1.572,7.068C1.371,6.981,1.133,7.072,1.045,7.276C0.958,7.479,1.051,7.714,1.253,7.802z"></path><path d="M15.151,20.074c-0.205,0.082-0.306,0.314-0.225,0.52l0.886,2.237c0.063,0.157,0.213,0.252,0.372,0.252   c0.049,0,0.099-0.009,0.147-0.028c0.205-0.082,0.306-0.314,0.225-0.52l-0.886-2.237C15.589,20.094,15.36,19.993,15.151,20.074z"></path><path d="M8.242,3.701c0.063,0.157,0.213,0.252,0.372,0.252c0.049,0,0.099-0.009,0.147-0.028c0.205-0.082,0.306-0.314,0.225-0.52   L8.1,1.169c-0.081-0.205-0.31-0.304-0.52-0.225c-0.205,0.082-0.306,0.314-0.225,0.52L8.242,3.701z"></path></g></svg>