<?xml version="1.0" encoding="UTF-8"?>
<svg width="700pt" height="700pt" version="1.1" viewBox="0 0 700 700" xmlns="http://www.w3.org/2000/svg">
 <g>
  <path d="m111.89 227.16h39.223c4.543 0 8.2305-3.6836 8.2305-8.2266 0-4.543-3.6836-8.2305-8.2305-8.2305h-24.879c3.2539-5.2305 6.7148-10.359 10.348-15.371h128.93c4.543 0 8.2266-3.6836 8.2266-8.2305 0-4.5508-3.6836-8.2305-8.2266-8.2305l-133.07-0.003907c-2.5898 0-5.0312 1.2188-6.5859 3.2891-7.8477 10.473-14.973 21.504-21.168 32.809-1.3984 2.5469-1.3516 5.6484 0.13281 8.1562 1.4805 2.5078 4.168 4.0391 7.0742 4.0391z"/>
  <path d="m86.066 293.27h118.91c4.543 0 8.2305-3.6836 8.2305-8.2305 0-4.5508-3.6836-8.2305-8.2305-8.2305h-108.22c1.4922-5.1602 3.1484-10.289 4.9648-15.363h49.391c4.543 0 8.2266-3.6836 8.2266-8.2305 0-4.5508-3.6836-8.2305-8.2266-8.2305h-55.117c-3.4102 0-6.4609 2.1016-7.6875 5.2773-4.1172 10.73-7.5742 21.785-10.254 32.836-0.59375 2.457-0.035156 5.0469 1.5273 7.0273 1.5703 1.9805 3.9609 3.1445 6.4805 3.1445z"/>
  <path d="m226.41 446.63c0-4.543-3.6875-8.2305-8.2305-8.2305h-116.52c-1.8008-5.0469-3.4453-10.18-4.9336-15.371h224.28c4.543 0 8.2305-3.6836 8.2305-8.2305 0-4.5352-3.6836-8.2305-8.2305-8.2305h-234.97c-2.5273 0-4.9062 1.1602-6.4688 3.1445-1.5625 1.9883-2.1289 4.5781-1.5273 7.0273 2.7109 11.172 6.1406 22.219 10.207 32.824 1.2188 3.1914 4.2773 5.293 7.6875 5.293h122.25c4.543-0.003907 8.2305-3.6836 8.2305-8.2266z"/>
  <path d="m324.34 512.73c0-4.543-3.6836-8.2305-8.2305-8.2305h-179.63c-3.6406-5.0195-7.0898-10.148-10.332-15.363h24.977c4.543 0 8.2305-3.6836 8.2305-8.2305 0-4.5508-3.6836-8.2305-8.2305-8.2305h-39.324c-2.9062 0-5.6016 1.5312-7.0859 4.0312-1.4766 2.5-1.5273 5.6055-0.13281 8.1562 6.1758 11.25 13.285 22.297 21.141 32.801 1.5547 2.0781 3.9961 3.3047 6.5938 3.3047h183.8c4.5469-0.007812 8.2266-3.6953 8.2266-8.2383z"/>
  <path d="m350 69.984c-72.023 0-140.45 27.301-192.7 76.859-2.4414 2.3164-3.2266 5.8867-1.9805 9.0234 1.2539 3.1289 4.2773 5.1797 7.6445 5.1797h73.844c4.543 0 8.2305-3.6836 8.2305-8.2305 0-4.543-3.6836-8.2266-8.2305-8.2266h-51.945c46.711-37.633 104.58-58.141 165.14-58.141 142.56 0 259.04 113.79 263.39 255.31h-526.79c0.14844-4.7539 0.41406-9.5078 0.8125-14.223h240.12c4.543 0 8.2305-3.6836 8.2305-8.2305 0-4.543-3.6836-8.2266-8.2305-8.2266h-247.57c-4.1797 0-7.6992 3.1367-8.1758 7.293-1.1914 10.41-1.793 21.043-1.793 31.613 0 10.445 0.59375 21.02 1.7656 31.449 0.46875 4.1641 3.9883 7.3086 8.1758 7.3086h178.91c4.543 0 8.2305-3.6836 8.2305-8.2305 0-4.5508-3.6836-8.2305-8.2305-8.2305h-171.45c-0.39844-4.6836-0.65234-9.3789-0.79688-14.07h526.79c-0.14844 4.7266-0.42188 9.4141-0.8125 14.07h-101.41c-4.543 0-8.2305 3.6836-8.2305 8.2305 0 4.5508 3.6836 8.2305 8.2305 8.2305h99.512c-0.89062 6.0078-1.9883 11.949-3.2812 17.816h-46.047c-4.5352 0-8.2266 3.6875-8.2266 8.2305s3.6836 8.2305 8.2266 8.2305h41.875c-5.0117 17.352-11.766 33.965-20.055 49.652h-131.99c-4.543 0-8.2305 3.6836-8.2305 8.2305 0 4.5508 3.6836 8.2305 8.2305 8.2305h122.53c-46.586 74.629-129.44 124.4-223.71 124.4-60.668 0-118.59-20.559-165.32-58.289h44.98c4.543 0 8.2305-3.6836 8.2305-8.2305 0-4.5508-3.6836-8.2305-8.2305-8.2305h-66.844c-3.3672 0-6.3984 2.0508-7.6445 5.1719-1.2461 3.1289-0.46875 6.6992 1.9727 9.0234 52.234 49.664 120.72 77.016 192.85 77.016 154.39 0 280-125.61 280-280 0-154.39-125.61-280.01-280-280.01z"/>
  <path d="m503.68 326.21c5.9297 0 11.738-0.96484 17.277-2.8789 34.09-11.719 49.742-56.387 34.895-99.566-12.133-35.285-41.523-59.934-71.469-59.934-5.9297 0-11.738 0.96484-17.277 2.8711-34.09 11.719-49.742 56.387-34.895 99.574 12.137 35.285 41.52 59.934 71.469 59.934zm-31.223-143.93c3.8164-1.3164 7.8242-1.9727 11.922-1.9727 23.031 0 46.02 20.074 55.902 48.816 11.895 34.602 0.82031 69.883-24.676 78.652-3.8164 1.3164-7.8242 1.9727-11.93 1.9727-23.031 0-46.02-20.074-55.902-48.824-11.891-34.594-0.81641-69.883 24.684-78.645z"/>
  <path d="m507.59 240.69c3.3438 9.7227 0.015625 19.684-7.4375 22.246-7.4492 2.5625-16.199-3.2461-19.543-12.973-3.3438-9.7227-0.015625-19.684 7.4375-22.246 7.4492-2.5625 16.203 3.2461 19.543 12.973"/>
 </g>
</svg>
